<svg id="Layer_1" data-name="Layer 1" xmlns="http://www.w3.org/2000/svg" viewBox="0 0 447.5 239.84"><defs><style>.cls-1,.cls-3,.cls-4,.cls-5{fill:none;stroke-linecap:round;}.cls-1{stroke:#1c2128;stroke-width:60px;}.cls-1,.cls-4,.cls-5{stroke-linejoin:round;}.cls-2{fill:#1c2128;}.cls-3,.cls-4{stroke:#fff;}.cls-3{stroke-miterlimit:10;}.cls-3,.cls-4,.cls-5{stroke-width:20px;}.cls-5{stroke:#f80049;}</style></defs><title>KA4G_LogoFinal</title><path class="cls-1" d="M428.84,80a39,39,0,0,0-24.09-12.79c-22.6-2.88-43.46,14.78-46.6,39.43s12.64,47,35.24,49.85c21.22,2.7,40.9-12.7,45.83-35" transform="translate(-22.49 -17.66)"/><path class="cls-1" d="M108.71,73.45c-18.16,8.91-28.24,28.11-25,46.55,2.61,14.9,13.92,29.37,30.78,33.18,20,4.53,35.25-8.85,36.71-10.17" transform="translate(-22.49 -17.66)"/><line class="cls-1" x1="40" y1="30" x2="46.75" y2="174.84"/><line class="cls-1" x1="198.99" y1="81.97" x2="117.46" y2="87.73"/><path class="cls-1" d="M263.38,135.5c-8.19,7.3-22.91,20.17-34.48,12.51-7.06-4.67-9.36-14.65-11-22.36-2.17-9.91-3.2-20.08-4.46-30.13-1.12-8.93-1.84-18.22-4-27-1.79-7.42-5.68-14.85-13.73-16.65-18-4-23.78,18-26.26,31-2.12,11.14-3.35,22.44-5.8,33.52-2.14,9.67-5.36,20.25-13,27.06" transform="translate(-22.49 -17.66)"/><polyline class="cls-1" points="377.5 96.78 417.5 99.36 408.98 166.33"/><line class="cls-1" x1="311.68" y1="37.36" x2="304.32" y2="170.35"/><path class="cls-1" d="M301,76.58c-7.27,16.86-34.63,53.86-34.63,53.86L349,126.91" transform="translate(-22.49 -17.66)"/><rect class="cls-2" x="44" y="174.98" width="20" height="69.98" rx="10" ry="10" transform="translate(-30.78 -15.35) rotate(-2.27)"/><circle class="cls-2" cx="51.25" cy="216.09" r="6.25"/><circle class="cls-2" cx="8.75" cy="23.59" r="8.75"/><circle class="cls-2" cx="426.25" cy="43.59" r="11.25"/><circle class="cls-2" cx="45" cy="229.84" r="2.5"/><rect class="cls-2" x="146.5" y="134.98" width="20" height="69.98" rx="10" ry="10" transform="translate(-29.12 -11.31) rotate(-2.27)"/><rect class="cls-2" x="413.49" y="152.32" width="20" height="69.98" rx="10" ry="10"/><circle class="cls-2" cx="161.25" cy="133.59" r="6.25"/><circle class="cls-2" cx="441.25" cy="191.09" r="6.25"/><circle class="cls-2" cx="356.25" cy="23.59" r="6.25"/><circle class="cls-2" cx="251.25" cy="46.09" r="6.25"/><circle class="cls-2" cx="160" cy="149.84" r="2.5"/><circle class="cls-2" cx="240" cy="54.84" r="2.5"/><circle class="cls-2" cx="227.5" cy="167.34" r="2.5"/><circle class="cls-2" cx="415" cy="227.34" r="2.5"/><circle class="cls-2" cx="442.5" cy="72.34" r="2.5"/><circle class="cls-2" cx="397.5" cy="199.84" r="2.5"/><circle class="cls-2" cx="17.5" cy="199.84" r="2.5"/><rect class="cls-2" x="147.5" y="102.34" width="7.5" height="60" rx="3.75" ry="3.75"/><rect class="cls-2" x="95" y="17.34" width="7.5" height="60" rx="3.75" ry="3.75"/><rect class="cls-2" x="232.5" y="137.34" width="7.5" height="60" rx="3.75" ry="3.75"/><rect class="cls-2" x="402.5" y="179.84" width="7.5" height="60" rx="3.75" ry="3.75"/><rect class="cls-2" x="242.5" y="112.34" width="7.5" height="60" rx="3.75" ry="3.75"/><rect class="cls-2" x="415" y="94.84" width="7.5" height="60" rx="3.75" ry="3.75"/><circle class="cls-2" cx="107.5" cy="29.84" r="2.5"/><path class="cls-3" d="M428.84,77.46a39,39,0,0,0-24.09-12.79c-22.6-2.88-43.46,14.78-46.6,39.43s12.64,47,35.24,49.85c21.22,2.7,40.9-12.7,45.83-35" transform="translate(-22.49 -17.66)"/><path class="cls-3" d="M108.71,71c-18.16,8.91-28.24,28.11-25,46.55,2.61,14.9,13.92,29.37,30.78,33.18,20,4.53,35.25-8.85,36.71-10.17" transform="translate(-22.49 -17.66)"/><line class="cls-3" x1="40" y1="27.5" x2="46.75" y2="172.34"/><line class="cls-3" x1="198.99" y1="79.47" x2="117.46" y2="85.23"/><path class="cls-3" d="M263.38,133c-8.19,7.3-22.91,20.17-34.48,12.51-7.06-4.67-9.36-14.65-11-22.36-2.17-9.91-3.2-20.08-4.46-30.13-1.12-8.93-1.84-18.22-4-27-1.79-7.42-5.68-14.85-13.73-16.65-18-4-23.78,18-26.26,31-2.12,11.14-3.35,22.44-5.8,33.52-2.14,9.67-5.36,20.25-13,27.06" transform="translate(-22.49 -17.66)"/><polyline class="cls-4" points="377.5 94.28 417.5 96.86 408.98 163.83"/><line class="cls-5" x1="311.68" y1="34.86" x2="304.32" y2="167.85"/><path class="cls-5" d="M301,74.08c-7.27,16.86-34.63,53.86-34.63,53.86L349,124.41" transform="translate(-22.49 -17.66)"/></svg>